<?xml version="1.0" encoding="UTF-8"?>
<!DOCTYPE svg PUBLIC "-//W3C//DTD SVG 1.1//EN" "http://www.w3.org/Graphics/SVG/1.1/DTD/svg11.dtd">
<svg xmlns="http://www.w3.org/2000/svg" version="1.1" width="600px" height="144px" style="shape-rendering:geometricPrecision; text-rendering:geometricPrecision; image-rendering:optimizeQuality; fill-rule:evenodd; clip-rule:evenodd" xmlns:xlink="http://www.w3.org/1999/xlink">
<g><path style="opacity:0.016" fill="#ffdfde" d="M 304.5,49.5 C 302.5,48.1667 300.5,48.1667 298.5,49.5C 300.5,46.8333 302.5,46.8333 304.5,49.5 Z"/></g>
<g><path style="opacity:0.998" fill="#52545c" d="M 63.5,47.5 C 72.9472,45.7358 79.6138,49.0691 83.5,57.5C 82.9037,60.2464 81.2371,61.0798 78.5,60C 73.4172,52.8941 67.2505,51.7275 60,56.5C 58.877,59.9563 59.7104,62.7897 62.5,65C 68.462,65.7141 74.1286,67.3808 79.5,70C 87.6478,83.5394 83.8145,91.3727 68,93.5C 63.115,93.1538 58.615,91.6538 54.5,89C 50.7569,85.5982 50.7569,82.4315 54.5,79.5C 56.6499,81.1491 58.6499,82.9824 60.5,85C 66.6481,88.6209 72.1481,87.7876 77,82.5C 77.7554,79.5027 76.9221,77.0027 74.5,75C 69.2583,73.1229 63.925,71.4563 58.5,70C 49.4014,60.0885 51.0681,52.5885 63.5,47.5 Z"/></g>
<g><path style="opacity:0.997" fill="#51545c" d="M 109.5,47.5 C 116.442,46.6544 122.776,48.1544 128.5,52C 130.084,54.8249 129.418,56.9916 126.5,58.5C 115.866,50.7565 107.033,52.4232 100,63.5C 96.9314,76.0311 101.598,84.0311 114,87.5C 118.516,86.4129 122.849,84.7462 127,82.5C 130.292,84.95 130.125,87.45 126.5,90C 110.737,96.6391 99.5707,92.1391 93,76.5C 90.8165,62.1765 96.3165,52.5099 109.5,47.5 Z"/></g>
<g><path style="opacity:0.993" fill="#42454e" d="M 141.5,48.5 C 143.167,48.5 144.833,48.5 146.5,48.5C 146.334,54.1764 146.501,59.8431 147,65.5C 148.648,67.0284 150.648,67.6951 153,67.5C 159.16,67.3963 165.326,67.063 171.5,66.5C 172.496,60.5368 172.829,54.5368 172.5,48.5C 174.467,48.2606 176.301,48.5939 178,49.5C 178.667,63.5 178.667,77.5 178,91.5C 176.333,92.8333 174.667,92.8333 173,91.5C 172.667,85.8333 172.333,80.1667 172,74.5C 169.753,73.0199 167.253,72.3533 164.5,72.5C 159.157,73.6573 153.824,73.824 148.5,73C 148,73.5 147.5,74 147,74.5C 146.667,80.1667 146.333,85.8333 146,91.5C 144.333,92.8333 142.667,92.8333 141,91.5C 140.185,77.092 140.352,62.7586 141.5,48.5 Z"/></g>
<g><path style="opacity:0.997" fill="#4d5058" d="M 207.5,47.5 C 227.313,47.1463 236.147,56.8129 234,76.5C 226.541,92.9761 214.708,97.1427 198.5,89C 188.755,79.9495 186.922,69.4495 193,57.5C 196.64,52.3475 201.474,49.0142 207.5,47.5 Z M 209.5,53.5 C 224.438,54.9305 230.271,62.9305 227,77.5C 220.8,86.7176 212.633,88.8842 202.5,84C 193.167,75 193.167,66 202.5,57C 204.713,55.3838 207.047,54.2172 209.5,53.5 Z"/></g>
<g><path style="opacity:0.996" fill="#3f434b" d="M 251.5,84.5 C 251.821,86.0481 252.821,86.7148 254.5,86.5C 261.175,86.3337 267.842,86.5004 274.5,87C 275.86,88.9376 275.527,90.6043 273.5,92C 264.255,92.817 255.089,92.6503 246,91.5C 245.333,77.5 245.333,63.5 246,49.5C 247.699,48.5939 249.533,48.2606 251.5,48.5C 251.5,60.5 251.5,72.5 251.5,84.5 Z"/></g>
<g><path style="opacity:0.999" fill="#4c4f57" d="M 332.5,48.5 C 338.842,48.3338 345.175,48.5005 351.5,49C 359.037,53.0318 361.537,59.1985 359,67.5C 357.152,70.0107 355.319,72.5107 353.5,75C 355.616,79.399 358.116,83.5657 361,87.5C 362.167,91.6667 360.667,93.1667 356.5,92C 352.94,87.437 349.773,82.6037 347,77.5C 344.582,75.3199 341.916,74.9865 339,76.5C 338.783,81.5527 338.283,86.5527 337.5,91.5C 335.833,92.8333 334.167,92.8333 332.5,91.5C 331.168,77.1369 331.168,62.8036 332.5,48.5 Z M 338.5,54.5 C 341.85,54.335 345.183,54.5017 348.5,55C 354.209,58.5454 354.875,62.8787 350.5,68C 346.637,69.3537 342.637,69.8537 338.5,69.5C 338.5,64.5 338.5,59.5 338.5,54.5 Z"/></g>
<g><path style="opacity:0.998" fill="#50525a" d="M 379.5,47.5 C 388.947,45.7358 395.614,49.0691 399.5,57.5C 398.904,60.2464 397.237,61.0798 394.5,60C 389.508,52.9042 383.341,51.7375 376,56.5C 374.877,59.9563 375.71,62.7897 378.5,65C 384.396,65.9258 390.062,67.5924 395.5,70C 403.662,83.8413 399.662,91.6747 383.5,93.5C 375.85,93.1959 370.517,89.6959 367.5,83C 367.769,81.3925 368.603,80.2259 370,79.5C 372.46,80.9578 374.627,82.7911 376.5,85C 382.697,88.5975 388.197,87.7641 393,82.5C 393.658,78.9748 392.491,76.1414 389.5,74C 384.418,72.986 379.418,71.6527 374.5,70C 368.725,65.6729 367.225,60.1729 370,53.5C 372.843,50.8373 376.009,48.8373 379.5,47.5 Z"/></g>
<g><path style="opacity:0.992" fill="#3e424a" d="M 411.5,48.5 C 413.167,48.5 414.833,48.5 416.5,48.5C 416.334,54.1764 416.501,59.8431 417,65.5C 418.299,66.9797 419.966,67.6464 422,67.5C 428.464,67.5925 434.964,67.2591 441.5,66.5C 442.33,60.8624 442.83,55.1958 443,49.5C 444.667,48.1667 446.333,48.1667 448,49.5C 448.667,63.5 448.667,77.5 448,91.5C 446.333,92.8333 444.667,92.8333 443,91.5C 442.83,85.4725 442.33,79.4725 441.5,73.5C 439.727,72.9131 437.894,72.5798 436,72.5C 431.657,73.7036 427.324,73.7036 423,72.5C 421.033,72.5419 419.199,73.0419 417.5,74C 416.69,79.7512 416.19,85.5845 416,91.5C 414.333,92.8333 412.667,92.8333 411,91.5C 410.185,77.092 410.352,62.7586 411.5,48.5 Z"/></g>
<g><path style="opacity:0.996" fill="#53555d" d="M 462.5,48.5 C 464.766,48.1412 466.599,48.8078 468,50.5C 468.333,60.8333 468.667,71.1667 469,81.5C 476.38,89.4892 483.713,89.4892 491,81.5C 491.333,71.1667 491.667,60.8333 492,50.5C 493.67,48.3017 495.67,47.9683 498,49.5C 498.667,60.5 498.667,71.5 498,82.5C 492.88,91.7723 485.047,95.2723 474.5,93C 468.075,91.5731 463.908,87.7398 462,81.5C 461.191,70.4236 461.358,59.4236 462.5,48.5 Z"/></g>
<g><path style="opacity:0.996" fill="#484a53" d="M 512.5,48.5 C 519.508,48.3337 526.508,48.5004 533.5,49C 542.188,53.9377 543.521,60.4377 537.5,68.5C 543.144,72.4072 544.978,77.7405 543,84.5C 541.108,88.0579 538.275,90.5579 534.5,92C 526.92,92.8132 519.42,92.6466 512,91.5C 511.185,77.092 511.352,62.7586 512.5,48.5 Z M 533.5,56.5 C 534.341,58.3792 534.675,60.3792 534.5,62.5C 532.982,64.7718 530.815,66.1051 528,66.5C 525.301,66.3362 522.468,66.1695 519.5,66C 517.267,62.5582 516.933,58.8915 518.5,55C 522.833,54.3333 527.167,54.3333 531.5,55C 532.416,55.2784 533.082,55.7784 533.5,56.5 Z M 518.5,72.5 C 524.29,72.0962 529.956,72.5962 535.5,74C 538.69,79.0509 537.69,83.0509 532.5,86C 527.833,86.6667 523.167,86.6667 518.5,86C 517.324,81.5467 517.324,77.0467 518.5,72.5 Z"/></g>
<g><path style="opacity:1" fill="#ff3926" d="M 304.5,49.5 C 305.5,49.8333 306.167,50.5 306.5,51.5C 307.262,53.2624 308.596,54.2624 310.5,54.5C 311.833,55.1667 312.833,56.1667 313.5,57.5C 313.973,58.9063 314.973,59.573 316.5,59.5C 318.525,61.1964 320.525,62.863 322.5,64.5C 322.5,65.5 322.5,66.5 322.5,67.5C 321.167,67.5 319.833,67.5 318.5,67.5C 318.5,71.8333 318.5,76.1667 318.5,80.5C 319.5,81.1667 320.5,81.8333 321.5,82.5C 322.299,85.4299 322.632,88.4299 322.5,91.5C 308.673,92.6607 294.673,92.8273 280.5,92C 277.966,88.9757 277.966,86.1423 280.5,83.5C 282.153,83.3404 283.486,82.6737 284.5,81.5C 284.5,77.1667 284.5,72.8333 284.5,68.5C 282.585,68.7845 280.919,68.4511 279.5,67.5C 281.167,65.5 282.833,63.5 284.5,61.5C 284.5,60.8333 284.833,60.5 285.5,60.5C 288.089,59.5806 290.089,57.914 291.5,55.5C 294.427,54.2427 296.761,52.2427 298.5,49.5C 300.5,48.1667 302.5,48.1667 304.5,49.5 Z M 310.5,59.5 C 311.262,61.2624 312.596,62.2624 314.5,62.5C 314.5,63.1667 314.833,63.5 315.5,63.5C 306.167,63.5 296.833,63.5 287.5,63.5C 292.148,59.8571 296.815,56.1904 301.5,52.5C 304.349,55.0837 307.349,57.417 310.5,59.5 Z M 293.5,81.5 C 293.5,81.1667 293.5,80.8333 293.5,80.5C 294.166,76.6475 294.833,72.6475 295.5,68.5C 296.492,72.7828 296.826,77.1161 296.5,81.5C 295.5,81.5 294.5,81.5 293.5,81.5 Z M 300.5,68.5 C 302.43,72.3727 303.097,76.706 302.5,81.5C 300.57,77.6273 299.903,73.294 300.5,68.5 Z M 306.5,68.5 C 308.22,72.4583 309.22,76.7916 309.5,81.5C 308.5,81.5 307.5,81.5 306.5,81.5C 306.5,77.1667 306.5,72.8333 306.5,68.5 Z M 313.5,68.5 C 315.43,72.3727 316.097,76.706 315.5,81.5C 313.57,77.6273 312.903,73.294 313.5,68.5 Z M 283.5,85.5 C 295.678,85.6366 307.678,85.6366 319.5,85.5C 319.5,86.5 319.5,87.5 319.5,88.5C 307.5,88.5 295.5,88.5 283.5,88.5C 283.5,87.5 283.5,86.5 283.5,85.5 Z"/></g>
<g><path style="opacity:0.008" fill="#ffccca" d="M 306.5,51.5 C 308.404,51.7376 309.738,52.7376 310.5,54.5C 308.596,54.2624 307.262,53.2624 306.5,51.5 Z"/></g>
<g><path style="opacity:0.741" fill="#ff9d94" d="M 298.5,49.5 C 296.761,52.2427 294.427,54.2427 291.5,55.5C 293.239,52.7573 295.573,50.7573 298.5,49.5 Z"/></g>
<g><path style="opacity:0.016" fill="#ffd0ce" d="M 313.5,57.5 C 315.027,57.427 316.027,58.0937 316.5,59.5C 314.973,59.573 313.973,58.9063 313.5,57.5 Z"/></g>
<g><path style="opacity:0.235" fill="#aca9ad" d="M 533.5,56.5 C 534.693,56.9704 535.36,57.9704 535.5,59.5C 535.48,60.7261 535.147,61.7261 534.5,62.5C 534.675,60.3792 534.341,58.3792 533.5,56.5 Z"/></g>
<g><path style="opacity:0.851" fill="#ff998f" d="M 291.5,55.5 C 290.089,57.914 288.089,59.5806 285.5,60.5C 286.911,58.086 288.911,56.4194 291.5,55.5 Z"/></g>
<g><path style="opacity:0.882" fill="#ff998e" d="M 310.5,59.5 C 312.404,59.7376 313.738,60.7376 314.5,62.5C 312.596,62.2624 311.262,61.2624 310.5,59.5 Z"/></g>
<g><path style="opacity:0.422" fill="#ffa3a2" d="M 287.5,63.5 C 296.833,63.5 306.167,63.5 315.5,63.5C 316.289,63.7828 316.956,64.2828 317.5,65C 306.833,65.6667 296.167,65.6667 285.5,65C 286.044,64.2828 286.711,63.7828 287.5,63.5 Z"/></g>
<g><path style="opacity:0.839" fill="#ffa59f" d="M 284.5,61.5 C 282.833,63.5 281.167,65.5 279.5,67.5C 278.475,67.1034 278.308,66.4368 279,65.5C 280.451,63.5359 282.284,62.2026 284.5,61.5 Z"/></g>
<g><path style="opacity:0.68" fill="#ffb3af" d="M 322.5,64.5 C 325.106,67.6159 324.106,68.9492 319.5,68.5C 319.817,72.7016 319.483,76.7016 318.5,80.5C 318.5,76.1667 318.5,71.8333 318.5,67.5C 319.833,67.5 321.167,67.5 322.5,67.5C 322.5,66.5 322.5,65.5 322.5,64.5 Z"/></g>
<g><path style="opacity:0.222" fill="#ffd3d2" d="M 288.5,68.5 C 288.833,85.8333 289.167,85.8333 289.5,68.5C 290.486,72.97 290.819,77.6367 290.5,82.5C 289.5,82.5 288.5,82.5 287.5,82.5C 287.181,77.6367 287.514,72.97 288.5,68.5 Z"/></g>
<g><path style="opacity:0.43" fill="#ffb3b1" d="M 293.5,81.5 C 294.5,81.5 295.5,81.5 296.5,81.5C 296.826,77.1161 296.492,72.7828 295.5,68.5C 294.833,72.6475 294.166,76.6475 293.5,80.5C 293.5,76.1667 293.5,71.8333 293.5,67.5C 294.833,67.5 296.167,67.5 297.5,67.5C 297.5,72.5 297.5,77.5 297.5,82.5C 295.901,82.7678 294.568,82.4345 293.5,81.5 Z"/></g>
<g><path style="opacity:0.551" fill="#ff8c8b" d="M 300.5,68.5 C 299.903,73.294 300.57,77.6273 302.5,81.5C 301.791,82.404 300.791,82.7373 299.5,82.5C 299.181,77.6367 299.514,72.97 300.5,68.5 Z"/></g>
<g><path style="opacity:0.121" fill="#ffd7d7" d="M 306.5,68.5 C 306.5,72.8333 306.5,77.1667 306.5,81.5C 307.5,81.5 308.5,81.5 309.5,81.5C 308.432,82.4345 307.099,82.7678 305.5,82.5C 305.181,77.6367 305.514,72.97 306.5,68.5 Z"/></g>
<g><path style="opacity:0.088" fill="#ffdbdb" d="M 313.5,68.5 C 312.903,73.294 313.57,77.6273 315.5,81.5C 314.791,82.404 313.791,82.7373 312.5,82.5C 312.181,77.6367 312.514,72.97 313.5,68.5 Z"/></g>
<g><path style="opacity:0.969" fill="#ffa395" d="M 284.5,81.5 C 283.486,82.6737 282.153,83.3404 280.5,83.5C 281.287,81.8958 282.62,81.2291 284.5,81.5 Z"/></g>
<g><path style="opacity:0.004" fill="#d5d0d1" d="M 251.5,84.5 C 252.71,84.9321 253.71,85.5987 254.5,86.5C 252.821,86.7148 251.821,86.0481 251.5,84.5 Z"/></g>
<g><path style="opacity:0.888" fill="#ff9d92" d="M 321.5,82.5 C 325.09,85.1225 325.424,88.1225 322.5,91.5C 322.632,88.4299 322.299,85.4299 321.5,82.5 Z"/></g>
<g><path style="opacity:0.025" fill="#fff2f2" d="M 283.5,85.5 C 283.5,86.5 283.5,87.5 283.5,88.5C 295.5,88.5 307.5,88.5 319.5,88.5C 319.5,87.5 319.5,86.5 319.5,85.5C 320.434,86.5676 320.768,87.901 320.5,89.5C 307.833,89.5 295.167,89.5 282.5,89.5C 282.232,87.901 282.566,86.5676 283.5,85.5 Z M 283.5,85.5 C 295.678,85.6366 307.678,85.6366 319.5,85.5C 319.5,86.5 319.5,87.5 319.5,88.5C 307.5,88.5 295.5,88.5 283.5,88.5C 283.5,87.5 283.5,86.5 283.5,85.5 Z"/></g>
</svg>
